<svg width="192" height="44" viewBox="0 0 192 44" fill="none" xmlns="http://www.w3.org/2000/svg">
<g clip-path="url(#clip0)">
<path d="M97.124 13.2756L76.8126 30.8463H99.1216V36.298H69.2069C67.421 36.298 66.401 35.1658 66.401 33.4868C66.401 32.4801 66.8246 31.5151 67.7175 30.7592L88.4524 13.1885H67.0787V7.69849H95.5464C97.3322 7.69849 98.3522 8.99783 98.3522 10.6351C98.3558 11.6418 97.9287 12.5649 97.124 13.2756Z" fill="#0679D5"/>
<path d="M112.374 36.3014C103.833 36.3014 101.327 33.7028 101.327 26.4884V17.5115C101.327 10.2972 103.833 7.69849 112.374 7.69849H119.514V13.1084H112.374C108.637 13.1084 107.744 14.1987 107.744 17.5115V19.4413H132.432V24.5168H107.744V26.5302C107.744 29.9685 108.594 30.8916 112.374 30.8916H132.601V36.3014H112.374Z" fill="#0679D5"/>
<path d="M138.717 36.3014V13.192H126.566V7.69849H157.37V13.192H145.218V36.3014H138.717V36.3014Z" fill="#0679D5"/>
<path d="M169.906 36.3014C161.365 36.3014 158.859 33.7028 158.859 26.4884V17.5115C158.859 10.2972 161.365 7.69849 169.906 7.69849H180.911C189.494 7.69849 192 10.2972 192 17.5115V26.485C192 33.6993 189.494 36.298 180.911 36.298H169.906V36.3014ZM185.541 17.8076C185.541 14.244 184.436 13.1954 180.653 13.1954H170.199C166.119 13.1954 165.272 14.244 165.272 17.8076V26.2376C165.272 29.9719 166.123 30.8498 170.199 30.8498H180.653C184.433 30.8498 185.541 29.9685 185.541 26.2376V17.8076Z" fill="#0679D5"/>
<path d="M15.6562 5.1311C16.2032 5.49339 16.6938 5.89747 17.0891 6.35033C17.2973 6.5663 17.4667 6.80318 17.6361 7.02961C17.7209 7.14108 17.7879 7.263 17.862 7.37796C17.9326 7.49291 18.0032 7.60787 18.0667 7.72282C18.5608 8.64595 18.7726 9.50985 18.8432 10.109C18.8538 10.1857 18.8644 10.2553 18.8749 10.3215C18.882 10.3877 18.8855 10.4504 18.8891 10.5096C18.8961 10.6281 18.8997 10.7256 18.9067 10.8057C18.9138 10.966 18.9173 11.053 18.9173 11.053V13.1571C18.9808 13.1815 19.0444 13.2058 19.1044 13.2267C19.242 13.2755 19.3726 13.3243 19.4996 13.3696C19.7573 13.4462 20.0008 13.5019 20.2161 13.5577C20.4349 13.5925 20.6326 13.6239 20.8055 13.6482C20.9784 13.6726 21.1231 13.6726 21.2431 13.6831C21.4831 13.6935 21.6102 13.697 21.6102 13.697H29.0148H29.2759V9.07094H29.0148H21.6031C21.6031 9.07094 21.5608 9.06745 21.4831 9.06397C21.4443 9.06048 21.3949 9.06745 21.3384 9.05352C21.282 9.04307 21.2184 9.03262 21.1478 9.02565C21.0808 9.00475 20.9996 8.98733 20.9149 8.96643C20.8761 8.94901 20.8337 8.93508 20.7879 8.91766C20.7667 8.91069 20.742 8.90373 20.7208 8.89328C20.6996 8.88283 20.6784 8.87238 20.6537 8.85844C20.4667 8.7818 20.2761 8.65292 20.089 8.48919C19.7149 8.16174 19.4008 7.63922 19.3549 7.02264C19.3302 6.71261 19.3726 6.38864 19.482 6.08906C19.5914 5.78948 19.7714 5.50384 20.0043 5.26696C20.2443 5.03705 20.5337 4.85939 20.8373 4.7514C21.1408 4.64341 21.469 4.60161 21.7831 4.626C22.4078 4.67128 22.9372 4.98131 23.269 5.35056C23.4349 5.53519 23.569 5.7233 23.6431 5.90792C23.6537 5.92882 23.6643 5.95321 23.6784 5.97411C23.689 5.99501 23.6925 6.01939 23.7031 6.0403C23.7172 6.08558 23.7349 6.1239 23.749 6.1657C23.7737 6.24931 23.7878 6.32594 23.8125 6.39213C23.8196 6.46528 23.8302 6.52798 23.8407 6.58024C23.8513 6.63597 23.8443 6.68474 23.8513 6.72306C23.8549 6.7997 23.8619 6.8415 23.8619 6.8415V8.84799H28.5418V6.8415C28.5418 6.8415 28.5348 6.71609 28.5242 6.47922C28.5136 6.36078 28.5171 6.21795 28.4924 6.04726C28.4677 5.87657 28.4395 5.6815 28.4007 5.46552C28.3477 5.24954 28.2913 5.01266 28.2136 4.75837C28.1677 4.63296 28.1218 4.50059 28.0689 4.36822C28.0442 4.30203 28.016 4.23236 27.9877 4.16269C27.956 4.09651 27.9242 4.02684 27.8889 3.95717C27.6348 3.39632 27.2501 2.80413 26.7383 2.24677C26.2266 1.68941 25.5737 1.16341 24.7937 0.766287C24.0137 0.365685 23.1066 0.0939729 22.1537 0.0208195C21.2043 -0.0523338 20.202 0.0661049 19.2526 0.404004C18.3032 0.741903 17.4209 1.29229 16.6973 1.99944C15.9774 2.71356 15.4197 3.58443 15.0809 4.52149C15.0527 4.60161 15.028 4.68173 14.9997 4.76185C15.2291 4.87681 15.448 4.99525 15.6562 5.1311Z" fill="#5A5B5D"/>
<path d="M6.9386 14.7247C7.63741 14.7351 8.33975 14.8292 9.0068 15.0277C9.66679 15.2333 10.295 15.512 10.8456 15.8742C11.3926 16.2365 11.8832 16.6406 12.2785 17.0935C12.4867 17.3094 12.6561 17.5463 12.8256 17.7727C12.9103 17.8842 12.9773 18.0061 13.0514 18.1211C13.122 18.236 13.1926 18.351 13.2561 18.466C13.3761 18.6889 13.4785 18.9049 13.5667 19.1174H13.7891V14.4878H11.7562C11.7562 14.4878 11.6997 14.4808 11.6009 14.4774C11.5762 14.4774 11.5479 14.4774 11.5197 14.4774C11.4915 14.4739 11.4597 14.4669 11.4279 14.4599C11.3962 14.453 11.3573 14.4495 11.3221 14.446C11.2832 14.4425 11.2479 14.4251 11.2056 14.4181C11.1668 14.4077 11.1244 14.3972 11.0821 14.3903C11.0397 14.3729 10.9974 14.3554 10.955 14.3415C10.9338 14.3345 10.9091 14.3276 10.8879 14.3206C10.8632 14.3136 10.8421 14.2997 10.8209 14.2892C10.775 14.2683 10.7291 14.2474 10.6832 14.2265C10.5068 14.122 10.3232 13.9931 10.1609 13.8434C10.0056 13.6831 9.87855 13.5055 9.77267 13.3278C9.75149 13.279 9.73031 13.2337 9.70914 13.1919C9.69855 13.171 9.68443 13.1501 9.67385 13.1258C9.66679 13.1049 9.65973 13.0805 9.65267 13.0596C9.63855 13.0143 9.6209 12.9725 9.60326 12.9342C9.59267 12.8924 9.58561 12.8506 9.57149 12.8122C9.56444 12.7739 9.54679 12.7356 9.54326 12.6973C9.53973 12.659 9.53267 12.6241 9.52914 12.5928C9.52208 12.558 9.51855 12.5301 9.5115 12.5022C9.5115 12.4743 9.5115 12.4465 9.5115 12.4221C9.50797 12.3246 9.50091 12.2688 9.50091 12.2688V11.0566C9.50091 11.0566 9.50444 11.0287 9.50797 10.9764C9.50797 10.9521 9.5115 10.9172 9.5115 10.8824C9.5115 10.865 9.5115 10.8441 9.5115 10.8232C9.51502 10.8023 9.51855 10.7814 9.52561 10.757C9.53973 10.5654 9.61385 10.3006 9.76561 10.0115C9.78326 9.9732 9.81149 9.94185 9.83267 9.90353C9.85737 9.86869 9.87149 9.82689 9.90325 9.79206C9.96325 9.72587 10.0056 9.64227 10.0762 9.57956C10.1962 9.43326 10.3585 9.31133 10.5279 9.1929C10.5738 9.16851 10.6197 9.14064 10.6621 9.11278C10.7079 9.08491 10.7574 9.06749 10.8032 9.04311L10.8738 9.00827L10.9515 8.98389C11.0044 8.96995 11.0503 8.94208 11.1032 8.92815C11.3115 8.86893 11.5303 8.84455 11.7562 8.83061C11.982 8.84106 12.2009 8.86545 12.4091 8.92815C12.462 8.94208 12.5079 8.96647 12.5609 8.98389L12.6385 9.00827L12.7091 9.04311C12.755 9.06749 12.8079 9.08491 12.8503 9.11278C12.8926 9.14064 12.9385 9.16851 12.9844 9.1929C13.1538 9.31133 13.3161 9.43326 13.4361 9.57956C13.5067 9.64575 13.5526 9.72587 13.6091 9.79554C13.6408 9.82689 13.6549 9.87218 13.6797 9.90701C13.7008 9.94533 13.7291 9.97668 13.7467 10.015C13.8985 10.3041 13.9726 10.5689 13.9867 10.7605C13.9902 10.7849 13.9938 10.8058 14.0008 10.8267C14.0044 10.8476 14.0008 10.8685 14.0008 10.8859C14.0008 10.9242 14.0044 10.9555 14.0044 10.9799C14.0079 11.0322 14.0114 11.06 14.0114 11.06V22.0052V23.7922H18.6913V22.0052V11.0531C18.6913 11.0531 18.6878 10.9695 18.6807 10.8127C18.6772 10.7326 18.6702 10.6385 18.6666 10.5236C18.6631 10.4644 18.6596 10.4052 18.6525 10.339C18.6419 10.2763 18.6313 10.2066 18.6243 10.1334C18.5572 9.5517 18.349 8.71566 17.869 7.82388C17.809 7.71241 17.7419 7.60442 17.6713 7.48947C17.6008 7.378 17.5337 7.25956 17.4525 7.15157C17.2866 6.93559 17.1243 6.7022 16.9231 6.49319C16.542 6.05427 16.062 5.66412 15.5361 5.31228C15.0032 4.96393 14.3961 4.69222 13.7538 4.49366C13.1079 4.30207 12.4267 4.2115 11.7491 4.20105C11.0715 4.2115 10.3903 4.30207 9.74443 4.49366C9.10562 4.69222 8.49504 4.96393 7.96564 5.31228C7.43624 5.66412 6.95978 6.05427 6.57861 6.49319C6.37743 6.7022 6.21508 6.93559 6.04921 7.15157C5.96803 7.25956 5.90097 7.378 5.83039 7.48947C5.76333 7.60094 5.69274 7.71241 5.63274 7.82388C5.15275 8.71914 4.94805 9.5517 4.88099 10.1334C4.8704 10.2066 4.85982 10.2763 4.85276 10.339C4.8457 10.4052 4.8457 10.4644 4.83864 10.5236C4.83158 10.6385 4.82805 10.7326 4.82452 10.8127C4.81746 10.9695 4.81393 11.0531 4.81393 11.0531V12.2653C4.81393 12.2653 4.81746 12.4325 4.83511 12.7252C4.83864 12.7983 4.8457 12.8784 4.84923 12.969C4.86334 13.0561 4.87393 13.1501 4.89158 13.2546C4.90923 13.3557 4.92334 13.4637 4.94452 13.5751C4.96217 13.6901 4.99746 13.805 5.02569 13.927C5.05746 14.0489 5.09275 14.1778 5.12805 14.3067C5.17393 14.4356 5.21981 14.5679 5.27275 14.7038C5.29745 14.77 5.32216 14.8362 5.35039 14.9058C5.86921 14.7874 6.40567 14.7316 6.9386 14.7247Z" fill="#5A5B5D"/>
<path d="M28.5418 13.913H23.8619V15.2715C24.3525 15.5676 24.836 15.9264 25.2666 16.3444C25.7607 16.8391 26.1771 17.3999 26.4983 17.9712C26.5724 18.1175 26.643 18.2604 26.7101 18.4032C26.7418 18.4729 26.7771 18.5425 26.8089 18.6157C26.8371 18.6853 26.8654 18.7585 26.8901 18.8282C26.943 18.9675 26.9924 19.1069 27.0383 19.2392C27.0771 19.3751 27.1124 19.504 27.1442 19.6329C27.1724 19.7583 27.2112 19.8802 27.2289 19.9951C27.2501 20.1136 27.2677 20.2251 27.2818 20.3296C27.2959 20.4341 27.3101 20.5316 27.3242 20.6222C27.3312 20.7127 27.3348 20.7963 27.3418 20.873C27.3595 21.176 27.363 21.3467 27.363 21.3467V21.7857C27.363 21.7857 27.3595 21.9598 27.3418 22.2594C27.3348 22.3361 27.3312 22.4197 27.3242 22.5102C27.3101 22.6008 27.2959 22.6983 27.2818 22.8028C27.2642 22.9073 27.2465 23.0188 27.2289 23.1338C27.2112 23.2522 27.1759 23.3706 27.1442 23.4961C27.1089 23.6215 27.0771 23.7538 27.0383 23.8897C26.9924 24.0221 26.943 24.1614 26.8901 24.3007C26.8654 24.3704 26.8371 24.4401 26.8089 24.5132C26.7807 24.5829 26.7454 24.6526 26.7101 24.7257C26.643 24.8686 26.5724 25.0114 26.4983 25.1577C26.1771 25.7255 25.7607 26.2898 25.2666 26.7845C24.836 27.2025 24.356 27.5613 23.8619 27.8539V37.1583C23.8619 37.1583 23.8548 37.214 23.8513 37.3116C23.8513 37.336 23.8513 37.3638 23.8513 37.3917C23.8478 37.4196 23.8407 37.4509 23.8337 37.4823C23.8301 37.5171 23.8231 37.5519 23.8195 37.5868C23.816 37.6251 23.7984 37.6599 23.7913 37.7017C23.7807 37.7401 23.7701 37.7819 23.7631 37.8237C23.7454 37.8655 23.7278 37.9073 23.7137 37.9525C23.7066 37.9734 23.6995 37.9978 23.6925 38.0187C23.6819 38.0396 23.6713 38.0605 23.6572 38.0849C23.636 38.1302 23.6148 38.1755 23.5937 38.2208C23.4878 38.3984 23.3572 38.5761 23.2019 38.7363C23.0395 38.8896 22.8596 39.015 22.6796 39.1195C22.6337 39.1404 22.5878 39.1613 22.5419 39.1822C22.5207 39.1927 22.4996 39.2066 22.4749 39.2136C22.4537 39.2205 22.429 39.2275 22.4078 39.2345C22.3619 39.2484 22.3196 39.2658 22.2807 39.2832C22.2384 39.2937 22.196 39.3007 22.1537 39.3111C22.1149 39.3181 22.076 39.3355 22.0372 39.339C21.9984 39.3425 21.9631 39.3494 21.9313 39.3529C21.896 39.3599 21.8678 39.3634 21.8396 39.3703C21.8078 39.3703 21.7831 39.3703 21.7584 39.3703C21.6596 39.3738 21.6031 39.3808 21.6031 39.3808C21.6031 39.3808 21.5466 39.3738 21.4478 39.3703C21.4231 39.3703 21.3949 39.3703 21.3666 39.3703C21.3384 39.3668 21.3066 39.3599 21.2749 39.3529C21.2431 39.3459 21.2078 39.3425 21.169 39.339C21.1302 39.3355 21.0949 39.3181 21.0561 39.3111C21.0172 39.3007 20.9749 39.2902 20.929 39.2832C20.8866 39.2658 20.8443 39.2484 20.8019 39.2345C20.7808 39.2275 20.7561 39.2205 20.7349 39.2136C20.7137 39.2031 20.6925 39.1927 20.6678 39.1822C20.6219 39.1613 20.5761 39.1404 20.5302 39.1195C20.3502 39.015 20.1702 38.8861 20.0078 38.7363C19.8561 38.5761 19.7255 38.3984 19.6196 38.2208C19.5984 38.1755 19.5773 38.1267 19.5561 38.0849C19.5455 38.064 19.5314 38.0431 19.5243 38.0187C19.5173 37.9944 19.5102 37.9734 19.5031 37.9525C19.489 37.9073 19.4714 37.8655 19.4537 37.8237C19.4431 37.7819 19.4361 37.7401 19.422 37.7017C19.4149 37.6599 19.3973 37.6251 19.3937 37.5868C19.3902 37.5485 19.3831 37.5136 19.3796 37.4823C19.3726 37.4509 19.369 37.4196 19.362 37.3917C19.362 37.3638 19.362 37.336 19.362 37.3116C19.3584 37.214 19.3514 37.1583 19.3514 37.1583C19.3514 37.1583 19.3584 37.1026 19.362 37.005C19.362 36.9807 19.362 36.9528 19.362 36.9249C19.369 36.8971 19.3726 36.8657 19.3796 36.8343C19.3867 36.803 19.3902 36.7647 19.3937 36.7298C19.3973 36.6915 19.4149 36.6567 19.422 36.6184C19.4326 36.5801 19.4431 36.5383 19.4537 36.493C19.4714 36.4512 19.4855 36.4094 19.5031 36.3676C19.5102 36.3467 19.5173 36.3223 19.5243 36.2979C19.5349 36.277 19.5455 36.2561 19.5561 36.2317C19.5773 36.1864 19.5984 36.1411 19.6196 36.0958C19.7255 35.9182 19.8561 35.7405 20.0078 35.5838C20.1702 35.4305 20.3502 35.3016 20.5302 35.1971C20.5761 35.1762 20.6255 35.1553 20.6678 35.1344C20.689 35.124 20.7102 35.11 20.7349 35.1031C20.7561 35.0961 20.7808 35.0891 20.8019 35.0822C20.8478 35.0682 20.8902 35.0508 20.929 35.0334C20.9714 35.0229 21.0137 35.016 21.0561 35.0055C21.0949 34.9951 21.1337 34.9776 21.169 34.9776C21.2078 34.9742 21.2431 34.9672 21.2749 34.9637C21.3066 34.9602 21.3384 34.9533 21.3666 34.9463C21.3949 34.9463 21.4231 34.9463 21.4478 34.9463C21.5466 34.9428 21.6031 34.9358 21.6031 34.9358H23.636V30.3028H21.6031C21.6031 30.3028 21.4337 30.3063 21.1372 30.3237C21.0631 30.3272 20.9819 30.3341 20.8937 30.3376C20.8055 30.3516 20.7102 30.362 20.6043 30.3794C20.5019 30.3969 20.3925 30.4143 20.2761 30.4317C20.1596 30.4491 20.0431 30.4839 19.9196 30.5153C19.7961 30.5466 19.6655 30.578 19.5349 30.6163C19.4043 30.6616 19.2702 30.7104 19.1326 30.7591C19.0655 30.7835 18.9949 30.8114 18.9243 30.8358C18.8537 30.8636 18.7867 30.8985 18.7161 30.9298C18.5785 30.996 18.4338 31.0622 18.2926 31.1354C17.7349 31.4419 17.1808 31.8425 16.6973 32.3128C16.2209 32.7935 15.815 33.3369 15.5044 33.8873C15.4303 34.0267 15.3632 34.1695 15.2997 34.3053C15.2679 34.375 15.2326 34.4412 15.2044 34.5109C15.1762 34.5805 15.1515 34.6502 15.1268 34.7164C15.0773 34.8522 15.0279 34.9846 14.982 35.1135C14.9432 35.2459 14.9115 35.3713 14.8797 35.4932C14.8515 35.6151 14.8162 35.7336 14.7985 35.845C14.7809 35.9565 14.7632 36.0645 14.7456 36.1655C14.7315 36.2665 14.7173 36.3641 14.7032 36.4512C14.6962 36.5383 14.6926 36.6219 14.6891 36.695C14.6715 36.9876 14.6679 37.1548 14.6679 37.1548C14.6679 37.1548 14.6715 37.322 14.6891 37.6147C14.6926 37.6878 14.6997 37.7679 14.7032 37.8585C14.7173 37.9456 14.7315 38.0431 14.7456 38.1441C14.7632 38.2452 14.7809 38.3532 14.7985 38.4681C14.8162 38.5831 14.8515 38.698 14.8797 38.8199C14.9115 38.9419 14.9432 39.0707 14.982 39.1996C15.0279 39.3285 15.0773 39.4609 15.1268 39.5968C15.1515 39.6629 15.1797 39.7326 15.2044 39.8023C15.2326 39.872 15.2679 39.9381 15.2997 40.0078C15.3667 40.1472 15.4338 40.2865 15.5044 40.4258C15.815 40.9762 16.2209 41.5231 16.6973 42.0004C17.1808 42.4706 17.7349 42.8712 18.2926 43.1778C18.4338 43.2475 18.5785 43.3171 18.7161 43.3798C18.7867 43.4112 18.8537 43.446 18.9243 43.4739C18.9949 43.5018 19.0655 43.5261 19.1326 43.5505C19.2702 43.5993 19.4043 43.6481 19.5349 43.6933C19.669 43.7317 19.7961 43.763 19.9196 43.7944C20.0431 43.8222 20.1631 43.8571 20.2761 43.8745C20.3925 43.8919 20.4984 43.9093 20.6043 43.9267C20.7067 43.9407 20.8019 43.9546 20.8937 43.9685C20.9819 43.9755 21.0666 43.979 21.1372 43.9825C21.4337 43.9999 21.6031 44.0034 21.6031 44.0034C21.6031 44.0034 21.7725 43.9999 22.069 43.9825C22.1431 43.979 22.2243 43.972 22.3125 43.9685C22.4007 43.9546 22.496 43.9442 22.6019 43.9267C22.7043 43.9093 22.8137 43.8954 22.9266 43.8745C23.0431 43.8571 23.1595 43.8222 23.2831 43.7944C23.4066 43.763 23.5372 43.7317 23.6678 43.6933C23.7984 43.6481 23.9325 43.5993 24.0701 43.5505C24.1372 43.5261 24.2078 43.4983 24.2784 43.4739C24.3489 43.446 24.416 43.4112 24.4866 43.3798C24.6242 43.3136 24.7654 43.2475 24.9101 43.1778C25.4677 42.8712 26.0218 42.4706 26.5054 42.0004C26.9818 41.5196 27.3877 40.9762 27.6983 40.4258C27.7689 40.2865 27.8395 40.1472 27.903 40.0078C27.9348 39.9381 27.97 39.872 27.9983 39.8023C28.023 39.7326 28.0512 39.6629 28.0759 39.5968C28.1253 39.4609 28.1748 39.3285 28.2206 39.1996C28.2595 39.0673 28.2912 38.9419 28.323 38.8199C28.3547 38.698 28.39 38.5796 28.4077 38.4681C28.4253 38.3532 28.443 38.2486 28.4606 38.1441C28.4747 38.0431 28.4889 37.9491 28.4995 37.8585C28.5065 37.7714 28.51 37.6913 28.5136 37.6147C28.5312 37.322 28.5347 37.1548 28.5347 37.1548V13.913H28.5418Z" fill="#5A5B5D"/>
<path d="M6.9387 28.6273H10.7292H20.202C20.202 28.6273 20.3714 28.6203 20.6679 28.6064C20.742 28.6029 20.8231 28.5959 20.9114 28.5924C20.9996 28.5785 21.0984 28.5646 21.2008 28.5506C21.3031 28.5332 21.4125 28.5158 21.5255 28.4984C21.642 28.481 21.7584 28.4461 21.882 28.4183C22.0055 28.3869 22.1361 28.3556 22.2666 28.3172C22.3972 28.272 22.5314 28.2267 22.669 28.1744C22.7361 28.15 22.8066 28.1222 22.8772 28.0978C22.9478 28.0699 23.0149 28.0351 23.0855 28.0037C23.2231 27.9375 23.3678 27.8714 23.509 27.8017C24.0666 27.4951 24.6207 27.0945 25.1042 26.6243C25.5807 26.1435 25.9866 25.6001 26.2972 25.0497C26.3678 24.9104 26.4383 24.7676 26.5019 24.6317C26.5336 24.562 26.5689 24.4959 26.5972 24.4262C26.6254 24.3565 26.6501 24.2868 26.6783 24.2207C26.7277 24.0848 26.7772 23.9524 26.823 23.8235C26.8619 23.6912 26.8936 23.5658 26.9254 23.4438C26.9536 23.3219 26.9924 23.2035 27.0066 23.092C27.0242 22.977 27.0419 22.8725 27.0595 22.7715C27.0736 22.6705 27.0877 22.573 27.0983 22.4859C27.1054 22.3988 27.1089 22.3187 27.1124 22.2455C27.1301 21.9529 27.1336 21.7857 27.1336 21.7857V21.3468C27.1336 21.3468 27.1301 21.1796 27.1124 20.887C27.1089 20.8138 27.1019 20.7337 27.0983 20.6466C27.0877 20.5595 27.0736 20.4654 27.0595 20.3609C27.0419 20.2599 27.0242 20.1519 27.0066 20.037C26.9889 19.922 26.9536 19.8071 26.9254 19.6851C26.8936 19.5632 26.8583 19.4343 26.823 19.3054C26.7772 19.1766 26.7277 19.0442 26.6783 18.9083C26.6536 18.8421 26.6254 18.7725 26.5972 18.7028C26.5689 18.6331 26.5336 18.5669 26.5019 18.4973C26.4348 18.3614 26.3678 18.2221 26.2972 18.0793C25.9866 17.5289 25.5807 16.982 25.1042 16.5047C24.6172 16.0344 24.0666 15.6338 23.509 15.3273C23.3678 15.2576 23.2231 15.188 23.0855 15.1253C23.0149 15.0939 22.9478 15.0591 22.8772 15.0312C22.8066 15.0033 22.7361 14.9789 22.669 14.9546C22.5314 14.9058 22.3972 14.857 22.2666 14.8117C22.1325 14.7734 22.0055 14.7421 21.882 14.7107C21.7584 14.6829 21.6384 14.6445 21.5255 14.6306C21.409 14.6132 21.3031 14.5958 21.2008 14.5783C21.0984 14.5644 21.0031 14.5505 20.9114 14.5365C20.8231 14.5296 20.7384 14.5261 20.6679 14.5226C20.3714 14.5052 20.202 14.5017 20.202 14.5017H18.9102V19.1208H20.202C20.202 19.1208 20.2585 19.1278 20.3573 19.1313C20.382 19.1313 20.4102 19.1313 20.4384 19.1313C20.4667 19.1382 20.4984 19.1417 20.5302 19.1487C20.562 19.1522 20.5973 19.1591 20.6361 19.1626C20.6749 19.1661 20.7102 19.1835 20.7526 19.1905C20.7914 19.2009 20.8337 19.2114 20.8761 19.2184C20.9184 19.2358 20.9608 19.2497 21.0031 19.2671C21.0243 19.2741 21.049 19.2811 21.0702 19.288C21.0914 19.2985 21.1126 19.3124 21.1373 19.3229C21.1831 19.3438 21.229 19.3647 21.2749 19.3856C21.4514 19.4901 21.6349 19.619 21.7972 19.7688C21.9525 19.929 22.0831 20.1067 22.1855 20.2808C22.2067 20.3296 22.2278 20.3749 22.249 20.4167C22.2596 20.4411 22.2737 20.4585 22.2808 20.4829C22.2878 20.5073 22.2949 20.5282 22.3019 20.5525C22.3196 20.5978 22.3337 20.6396 22.3514 20.6779C22.3619 20.7197 22.369 20.7615 22.3796 20.7999C22.3866 20.8382 22.4043 20.8765 22.4078 20.9148C22.4114 20.9531 22.4149 20.988 22.4219 21.0193C22.429 21.0507 22.4361 21.082 22.4396 21.1099C22.4396 21.1378 22.4396 21.1656 22.4396 21.19C22.4431 21.2876 22.4502 21.3433 22.4502 21.3433V21.7822C22.4502 21.7822 22.4431 21.8379 22.4396 21.932C22.4396 21.9564 22.4396 21.9843 22.4396 22.0121C22.4361 22.04 22.429 22.0713 22.4219 22.1027C22.4184 22.134 22.4114 22.1724 22.4078 22.2072C22.4043 22.2455 22.3866 22.2804 22.3796 22.3222C22.369 22.3605 22.3584 22.4023 22.3514 22.4441C22.3337 22.4859 22.3161 22.5277 22.3019 22.5695C22.2949 22.5904 22.2878 22.6148 22.2808 22.6357C22.2737 22.6566 22.2596 22.6775 22.249 22.7019C22.2278 22.7471 22.2067 22.7889 22.1855 22.8377C22.0796 23.0154 21.949 23.193 21.7972 23.3533C21.6349 23.5065 21.4549 23.6354 21.2749 23.7365C21.229 23.7574 21.1796 23.7783 21.1373 23.7992C21.1161 23.8096 21.0949 23.8235 21.0702 23.8305C21.049 23.8375 21.0243 23.8444 21.0031 23.8549C20.9573 23.8688 20.9149 23.8862 20.8761 23.9037C20.8337 23.9141 20.7914 23.9246 20.7526 23.935C20.7102 23.942 20.6749 23.9594 20.6361 23.9629C20.5973 23.9664 20.562 23.9733 20.5302 23.9768C20.4984 23.9838 20.4667 23.9873 20.4384 23.9942C20.4067 23.9942 20.382 23.9942 20.3573 23.9942C20.2585 23.9977 20.202 24.0047 20.202 24.0047H10.7292H6.9387C6.9387 24.0047 6.88223 23.9977 6.7834 23.9942C6.7587 23.9942 6.73046 23.9942 6.70223 23.9942C6.67399 23.9873 6.64223 23.9838 6.61047 23.9768C6.5787 23.9698 6.54341 23.9664 6.50459 23.9629C6.46576 23.9594 6.43047 23.942 6.38812 23.935C6.3493 23.9246 6.30694 23.9141 6.26459 23.9037C6.22224 23.8862 6.17989 23.8723 6.13753 23.8549C6.11636 23.8479 6.09165 23.841 6.07048 23.8305C6.04577 23.8235 6.02812 23.8096 6.00342 23.7992C5.95754 23.7783 5.91166 23.7574 5.86577 23.7365C5.68931 23.6319 5.50578 23.5031 5.34343 23.3533C5.18814 23.193 5.06108 23.0154 4.9552 22.8377C4.93403 22.7889 4.91285 22.7471 4.89167 22.7019C4.88109 22.6775 4.86697 22.6601 4.85991 22.6357C4.85285 22.6113 4.84579 22.5904 4.83873 22.5695C4.82462 22.5242 4.80697 22.4824 4.78932 22.4441C4.77874 22.4023 4.77168 22.3605 4.76109 22.3222C4.75403 22.2838 4.73285 22.2455 4.73285 22.2072C4.72932 22.1724 4.72227 22.1375 4.71874 22.1027C4.71168 22.0713 4.70815 22.04 4.70109 22.0121C4.70109 21.9843 4.70109 21.9564 4.69756 21.932C4.69403 21.8484 4.6905 21.7996 4.68697 21.7857C4.68697 21.7787 4.6905 21.7578 4.69403 21.716C4.69403 21.6916 4.69756 21.6568 4.69756 21.622C4.69756 21.6046 4.69756 21.5837 4.69756 21.5628C4.70109 21.5418 4.70462 21.5209 4.71168 21.4966C4.7258 21.305 4.79991 21.0402 4.95167 20.7511C4.96932 20.7163 4.99756 20.6814 5.01873 20.6431C5.04344 20.6083 5.05755 20.5665 5.08932 20.5316C5.14932 20.4654 5.19167 20.3818 5.26226 20.3157C5.38225 20.1694 5.54813 20.0474 5.71401 19.929C5.75989 19.9046 5.80225 19.8767 5.84813 19.8489C5.89401 19.821 5.94342 19.8036 5.9893 19.7792L6.05989 19.7444L6.13753 19.72C6.18694 19.706 6.23636 19.6782 6.2893 19.6642C6.49753 19.605 6.71635 19.5806 6.94223 19.5667C7.1681 19.5772 7.38692 19.6015 7.59515 19.6642C7.64809 19.6782 7.69398 19.7026 7.74692 19.72L7.82456 19.7444L7.89515 19.7792C7.94456 19.8036 7.99397 19.821 8.03985 19.8489C8.0822 19.8767 8.12809 19.9046 8.17397 19.929C8.34338 20.0474 8.50573 20.1694 8.62572 20.3157C8.69631 20.3784 8.74219 20.462 8.79866 20.5316C8.83043 20.563 8.84454 20.6083 8.86925 20.6431C8.89042 20.6779 8.91513 20.7128 8.93631 20.7511C9.08807 21.0437 9.16218 21.305 9.1763 21.4966C9.17983 21.5209 9.18336 21.5418 9.18689 21.5628C9.19042 21.5837 9.18689 21.6046 9.18689 21.622C9.19042 21.6603 9.19042 21.6916 9.19042 21.716C9.19395 21.7683 9.19748 21.7961 9.19748 21.7961V23.7887H10.7327H13.7892V22.0017V20.6988C13.7009 20.131 13.4927 19.3716 13.0621 18.5669C13.0021 18.4555 12.9315 18.3475 12.8645 18.2325C12.7939 18.1211 12.7268 18.0026 12.6457 17.8946C12.4833 17.6752 12.321 17.4453 12.1162 17.2363C11.7351 16.8008 11.2586 16.4072 10.7292 16.0553C10.1963 15.707 9.58924 15.4353 8.94689 15.2367C8.30102 15.0451 7.61986 14.9546 6.94575 14.9441C6.26812 14.9546 5.58696 15.0451 4.94109 15.2367C4.30227 15.4353 3.6917 15.707 3.15877 16.0553C2.62936 16.4037 2.1529 16.7973 1.77173 17.2363C1.57056 17.4453 1.40821 17.6752 1.24233 17.8946C1.16116 18.0026 1.0941 18.1211 1.02351 18.2325C0.956453 18.344 0.885866 18.4555 0.825867 18.5669C0.349405 19.4622 0.141174 20.2982 0.0741163 20.88C0.0635282 20.9531 0.0529402 21.0193 0.0458815 21.0855C0.0388228 21.1517 0.0352935 21.2109 0.0317641 21.2701C0.0247054 21.3851 0.0211761 21.4791 0.0176467 21.5593C0.00352935 21.6742 0.00352935 21.7509 0 21.7787V21.7857C0 21.7892 0 21.7927 0 21.7927C0 21.824 0.00705869 21.9773 0.0211761 22.2385C0.0247054 22.3117 0.0317641 22.3918 0.0352935 22.4789C0.0494109 22.566 0.0599989 22.6601 0.0776456 22.7646C0.0952924 22.8656 0.10941 22.9736 0.130586 23.085C0.148233 23.2 0.183526 23.3149 0.211761 23.4369C0.243525 23.5588 0.275289 23.6877 0.314112 23.8166C0.359993 23.9455 0.409404 24.0778 0.458815 24.2137C0.483521 24.2799 0.511755 24.3495 0.536461 24.4192C0.564695 24.4889 0.599989 24.5551 0.631753 24.6247C0.698811 24.7606 0.765868 24.9034 0.839985 25.0428C1.15057 25.5932 1.55644 26.1401 2.0329 26.6173C2.51642 27.0876 3.07053 27.4882 3.62817 27.7947C3.76934 27.8644 3.91052 27.9341 4.05169 27.9968C4.12228 28.0281 4.18933 28.0629 4.25992 28.0908C4.33051 28.1152 4.4011 28.1431 4.46815 28.1675C4.6058 28.2197 4.73991 28.265 4.8705 28.3103C5.00461 28.3486 5.13167 28.3799 5.2552 28.4113C5.37872 28.4392 5.49872 28.4775 5.61166 28.4914C5.7246 28.5088 5.83401 28.5263 5.93636 28.5437C6.03871 28.5576 6.134 28.5715 6.22577 28.5855C6.314 28.589 6.39871 28.5959 6.46929 28.5994C6.76929 28.6203 6.9387 28.6273 6.9387 28.6273Z" fill="#5A5B5D"/>
<path d="M14.7667 39.2589C14.7279 39.1231 14.6926 38.9907 14.6608 38.8653C14.6326 38.7399 14.5938 38.618 14.5761 38.4995C14.5585 38.3811 14.5408 38.2696 14.5232 38.1651C14.5091 38.0606 14.4949 37.9631 14.4808 37.8725C14.4738 37.7819 14.4702 37.6983 14.4667 37.6217C14.4491 37.3186 14.4455 37.1479 14.4455 37.1479C14.4455 37.1479 14.4491 36.9772 14.4667 36.6742C14.4702 36.5975 14.4773 36.5139 14.4808 36.4234C14.4949 36.3328 14.5091 36.2353 14.5232 36.1307C14.5408 36.0262 14.5585 35.9148 14.5761 35.7963C14.5938 35.6779 14.6326 35.5595 14.6608 35.434C14.6961 35.3086 14.7279 35.1763 14.7667 35.0404C14.8126 34.908 14.862 34.7722 14.9149 34.6294C14.9432 34.5597 14.9679 34.49 14.9961 34.4169C15.0243 34.3472 15.0596 34.2775 15.0949 34.2044C15.162 34.0616 15.2326 33.9187 15.3067 33.7724C15.6279 33.2046 16.0443 32.6403 16.5349 32.1456C17.0361 31.6614 17.6043 31.2469 18.1831 30.9299C18.3313 30.8567 18.476 30.7871 18.6207 30.7209C18.6419 30.7104 18.6631 30.7035 18.6843 30.693V28.8398H14.0079V32.0307V33.4101C14.0079 33.4101 14.0008 33.4659 13.9973 33.5634C13.9973 33.5878 13.9973 33.6157 13.9973 33.6435C13.9902 33.6714 13.9867 33.7027 13.9796 33.7341C13.9761 33.7655 13.9691 33.8038 13.9655 33.8386C13.962 33.8769 13.9444 33.9118 13.9373 33.9536C13.9267 33.9919 13.9161 34.0337 13.9091 34.0755C13.8914 34.1173 13.8738 34.1591 13.8597 34.2044C13.8526 34.2253 13.8455 34.2497 13.8385 34.2706C13.8279 34.2915 13.8173 34.3124 13.8032 34.3333C13.782 34.3785 13.7608 34.4238 13.7397 34.4691C13.6338 34.6468 13.5032 34.8244 13.3514 34.9847C13.1891 35.1379 13.0091 35.2668 12.8291 35.3713C12.7832 35.3922 12.7373 35.4131 12.6914 35.434C12.6667 35.4445 12.6491 35.4584 12.6244 35.4654C12.6032 35.4724 12.5785 35.4793 12.5573 35.4863C12.5114 35.5002 12.4691 35.5177 12.4303 35.5351C12.3879 35.5455 12.3456 35.5525 12.3067 35.5629C12.2679 35.5699 12.2291 35.5873 12.1903 35.5908C12.155 35.5943 12.1162 35.6013 12.0844 35.6047C12.0526 35.6117 12.0209 35.6152 11.9926 35.6222C11.9644 35.6222 11.9362 35.6222 11.9115 35.6222C11.8126 35.6256 11.7562 35.6326 11.7562 35.6326C11.7562 35.6326 11.6997 35.6256 11.6009 35.6222C11.5762 35.6222 11.5479 35.6222 11.5197 35.6222C11.4915 35.6187 11.4597 35.6117 11.4279 35.6047C11.3962 35.6013 11.3573 35.5943 11.3221 35.5908C11.2832 35.5873 11.2479 35.5699 11.2056 35.5629C11.1668 35.5525 11.1244 35.542 11.0821 35.5351C11.0397 35.5177 10.9974 35.5002 10.955 35.4863C10.9338 35.4793 10.9091 35.4724 10.8879 35.4654C10.8668 35.4549 10.8456 35.441 10.8209 35.434C10.775 35.4097 10.7326 35.3888 10.6832 35.3713C10.5068 35.2668 10.3232 35.1379 10.1609 34.9847C10.0056 34.8244 9.87855 34.6468 9.77267 34.4691C9.75149 34.4238 9.73031 34.3751 9.70914 34.3333C9.69855 34.3124 9.68443 34.2915 9.67384 34.2706C9.66679 34.2462 9.65973 34.2253 9.65267 34.2044C9.63855 34.1591 9.6209 34.1173 9.60326 34.0755C9.59267 34.0337 9.58561 33.9919 9.57502 33.9536C9.56796 33.9152 9.54679 33.8804 9.54679 33.8386C9.54326 33.8003 9.5362 33.7655 9.53267 33.7341C9.52561 33.7027 9.52208 33.6714 9.51502 33.6435C9.51502 33.6122 9.51502 33.5878 9.51502 33.5634C9.51149 33.4659 9.50444 33.4101 9.50444 33.4101C9.50444 33.4101 9.51149 33.3544 9.51502 33.2569C9.51502 33.2325 9.51502 33.2046 9.51502 33.1767C9.52208 33.1489 9.52561 33.1175 9.53267 33.0862C9.53973 33.0513 9.54326 33.0165 9.54679 32.9817C9.55032 32.9433 9.56796 32.9085 9.57502 32.8702C9.58561 32.8319 9.5962 32.7901 9.60326 32.7483C9.6209 32.7065 9.63855 32.6647 9.65267 32.6194C9.65973 32.5985 9.66679 32.5741 9.67384 32.5532C9.68443 32.5323 9.69855 32.5114 9.70914 32.487C9.73031 32.4417 9.75149 32.3999 9.77267 32.3512C9.87855 32.1735 10.0091 31.9958 10.1609 31.8356C10.3232 31.6823 10.5032 31.5534 10.6832 31.4524C10.7326 31.4315 10.7785 31.4106 10.8209 31.3897C10.8456 31.3793 10.8632 31.3653 10.8879 31.3549C10.9126 31.3479 10.9338 31.3409 10.955 31.334C11.0009 31.32 11.0432 31.3026 11.0821 31.2852C11.1244 31.2748 11.1668 31.2678 11.2056 31.2573C11.2444 31.2469 11.2832 31.2295 11.3221 31.2295C11.3573 31.226 11.3962 31.219 11.4279 31.2155C11.4597 31.2086 11.4915 31.2051 11.5197 31.1981C11.5479 31.1981 11.5762 31.1981 11.6009 31.1981C11.6997 31.1946 11.7562 31.1877 11.7562 31.1877H13.7891V28.8468H10.7291H6.9386C6.9386 28.8468 6.81507 28.8433 6.60331 28.8328C6.23273 29.2439 5.90803 29.6932 5.65392 30.1496C5.58333 30.2924 5.51274 30.4317 5.44569 30.5676C5.41392 30.6373 5.37863 30.7035 5.35039 30.7731C5.32216 30.8428 5.29745 30.909 5.27275 30.9787C5.21981 31.1145 5.17393 31.2469 5.12805 31.3758C5.08922 31.5081 5.05746 31.6336 5.02569 31.7555C4.99746 31.8774 4.96217 31.9958 4.94452 32.1073C4.92687 32.2188 4.90923 32.3268 4.89158 32.4278C4.87746 32.5288 4.86334 32.6229 4.84923 32.7134C4.84217 32.8005 4.83864 32.8806 4.83511 32.9538C4.81746 33.2464 4.81393 33.4136 4.81393 33.4136C4.81393 33.4136 4.81746 33.5808 4.83511 33.8734C4.83864 33.9466 4.8457 34.0267 4.84923 34.1173C4.86334 34.2044 4.87393 34.3019 4.89158 34.4029C4.90923 34.504 4.92334 34.6119 4.94452 34.7269C4.96217 34.8419 4.99746 34.9568 5.02569 35.0787C5.05746 35.2007 5.09275 35.3295 5.12805 35.4584C5.17393 35.5873 5.21981 35.7197 5.27275 35.8555C5.29745 35.9252 5.32569 35.9914 5.35039 36.0611C5.37863 36.1307 5.41392 36.1969 5.44569 36.2666C5.51274 36.4025 5.5798 36.5418 5.65392 36.6846C5.9645 37.235 6.37038 37.7819 6.84684 38.2592C7.33036 38.7294 7.88447 39.13 8.4421 39.4366C8.58328 39.5063 8.72798 39.5759 8.86562 39.6386C8.93621 39.67 9.00327 39.7048 9.07386 39.7327C9.14444 39.7605 9.21503 39.7849 9.28209 39.8093C9.41973 39.8581 9.55385 39.9069 9.68443 39.9521C9.81855 39.9905 9.9456 40.0218 10.0691 40.0532C10.1927 40.081 10.3127 40.1159 10.4256 40.1333C10.5421 40.1507 10.6515 40.1681 10.7503 40.1855C10.8526 40.1995 10.9515 40.2134 11.0397 40.2273C11.1279 40.2343 11.2091 40.2378 11.2832 40.2413C11.5797 40.2587 11.7491 40.2622 11.7491 40.2622C11.7491 40.2622 11.9185 40.2587 12.215 40.2413C12.2891 40.2378 12.3703 40.2308 12.462 40.2273C12.5503 40.2134 12.6456 40.2029 12.7514 40.1855C12.8538 40.1681 12.9632 40.1507 13.0797 40.1333C13.1961 40.1159 13.3126 40.081 13.4361 40.0532C13.5597 40.0218 13.6902 39.9905 13.8208 39.9521C13.9514 39.9069 14.0855 39.8616 14.2232 39.8093C14.2902 39.7849 14.3608 39.7571 14.4314 39.7327C14.502 39.7048 14.569 39.67 14.6396 39.6386C14.7138 39.6038 14.7914 39.5655 14.869 39.5272C14.8337 39.4366 14.7985 39.346 14.7667 39.2589Z" fill="#5A5B5D"/>
<path d="M51.1402 28.6099H47.3496H44.2932V30.9508H46.3261C46.3261 30.9508 46.3826 30.9578 46.4814 30.9612C46.5061 30.9612 46.5344 30.9612 46.5626 30.9612C46.5908 30.9682 46.6226 30.9717 46.6544 30.9787C46.6897 30.9856 46.7249 30.9891 46.7602 30.9926C46.7991 30.9961 46.8344 31.0135 46.8767 31.0205C46.9155 31.0309 46.9579 31.0414 47.0002 31.0483C47.0426 31.0657 47.0849 31.0832 47.1308 31.0971C47.152 31.1041 47.1767 31.111 47.1979 31.118C47.2191 31.1285 47.2438 31.1389 47.2649 31.1494C47.3108 31.1703 47.3532 31.1946 47.4026 31.2121C47.579 31.3166 47.7626 31.4454 47.9249 31.5952C48.0802 31.7555 48.2073 31.9331 48.3132 32.1108C48.3343 32.1596 48.3555 32.2014 48.3767 32.2467C48.3873 32.2676 48.4014 32.2885 48.412 32.3128C48.419 32.3372 48.4261 32.3581 48.4331 32.379C48.4473 32.4243 48.4649 32.4661 48.4826 32.5079C48.4931 32.5497 48.5002 32.5915 48.5108 32.6298C48.5179 32.6716 48.539 32.7065 48.539 32.7448C48.5426 32.7831 48.5461 32.8179 48.5531 32.8493C48.5602 32.8806 48.5637 32.912 48.5708 32.9399C48.5708 32.9677 48.5708 32.9956 48.5708 33.02C48.5743 33.1175 48.5814 33.1698 48.5814 33.1698C48.5814 33.1698 48.5743 33.2255 48.5708 33.3231C48.5708 33.3474 48.5708 33.3753 48.5708 33.4032C48.5637 33.431 48.5602 33.4624 48.5531 33.4937C48.5461 33.5286 48.5426 33.5634 48.539 33.5982C48.5355 33.6366 48.5179 33.6714 48.5108 33.7097C48.5002 33.748 48.4896 33.7898 48.4826 33.8351C48.4649 33.8769 48.4473 33.9187 48.4331 33.9605C48.4261 33.9814 48.419 34.0058 48.412 34.0267C48.4049 34.0476 48.3873 34.0685 48.3767 34.0929C48.3555 34.1382 48.3343 34.1835 48.3132 34.2288C48.2073 34.4064 48.0767 34.5841 47.9249 34.7443C47.7626 34.8941 47.5826 35.023 47.4026 35.1275C47.3532 35.1484 47.3073 35.1693 47.2649 35.1902C47.2438 35.2007 47.2226 35.2146 47.1979 35.2216C47.1767 35.2285 47.152 35.2355 47.1308 35.2459C47.0849 35.2599 47.0426 35.2773 47.0002 35.2947C46.9579 35.3052 46.9155 35.3121 46.8767 35.3226C46.8379 35.3295 46.7991 35.3504 46.7602 35.3504C46.7249 35.3539 46.6861 35.3609 46.6544 35.3644C46.6226 35.3713 46.5908 35.3748 46.5626 35.3818C46.5308 35.3818 46.5061 35.3818 46.4814 35.3818C46.3826 35.3853 46.3261 35.3922 46.3261 35.3922C46.3261 35.3922 46.2697 35.3853 46.1708 35.3818C46.1461 35.3818 46.1179 35.3818 46.0897 35.3818C46.0614 35.3748 46.0297 35.3713 45.9979 35.3644C45.9661 35.3574 45.9273 35.3539 45.892 35.3504C45.8532 35.3504 45.8179 35.3295 45.7791 35.3226C45.7403 35.3121 45.6979 35.3017 45.6556 35.2947C45.6132 35.2773 45.5708 35.2634 45.5285 35.2459C45.5073 35.239 45.4826 35.232 45.4614 35.2216C45.4403 35.2146 45.4191 35.2007 45.3979 35.1902C45.352 35.1693 45.3061 35.1484 45.2603 35.1275C45.0838 35.023 44.9003 34.8941 44.7379 34.7443C44.5862 34.5841 44.4556 34.4064 44.3497 34.2288C44.3285 34.18 44.3073 34.1382 44.2862 34.0929C44.2756 34.072 44.2615 34.0511 44.2544 34.0267C44.2473 34.0023 44.2403 33.9814 44.2332 33.9605C44.2191 33.9152 44.2015 33.8734 44.1838 33.8351C44.1732 33.7898 44.1662 33.7515 44.1556 33.7097C44.1485 33.6714 44.1309 33.6331 44.1273 33.5982C44.1238 33.5599 44.1168 33.5251 44.1132 33.4937C44.1062 33.4624 44.0991 33.431 44.0956 33.4032C44.0956 33.3753 44.0956 33.3474 44.0956 33.3231C44.0921 33.2255 44.085 33.1698 44.085 33.1698V31.7903V28.5994H39.4016V30.7104C39.4192 30.7174 39.4368 30.7279 39.4545 30.7348C40.0404 30.9926 40.658 31.3862 41.2439 31.9088C41.8262 32.4313 42.3768 33.0966 42.7933 33.8909C43.2132 34.6851 43.4956 35.6117 43.5732 36.5836C43.6438 37.4684 43.5415 38.402 43.2521 39.2972C43.3191 39.3286 43.3862 39.3634 43.4497 39.3948C43.5203 39.4261 43.5874 39.461 43.6579 39.4888C43.7285 39.5167 43.7991 39.5411 43.8662 39.5655C44.0038 39.6177 44.1379 39.663 44.2685 39.7083C44.4026 39.7431 44.5297 39.778 44.6532 39.8093C44.7767 39.8372 44.8967 39.872 45.0097 39.8894C45.1262 39.9069 45.2356 39.9243 45.3379 39.9417C45.4403 39.9556 45.5356 39.9696 45.6238 39.9835C45.712 39.9905 45.7932 39.9939 45.8673 39.9974C46.1638 40.0114 46.3332 40.0183 46.3332 40.0183C46.3332 40.0183 46.5026 40.0148 46.7991 39.9974C46.8732 39.9939 46.9544 39.987 47.0426 39.9835C47.1308 39.9696 47.2261 39.9591 47.332 39.9417C47.4343 39.9243 47.5438 39.9069 47.6602 39.8894C47.7732 39.872 47.8932 39.8372 48.0167 39.8093C48.1402 39.778 48.2708 39.7431 48.4014 39.7083C48.532 39.663 48.6661 39.6142 48.8037 39.5655C48.8708 39.5411 48.9414 39.5132 49.012 39.4888C49.0825 39.461 49.1496 39.4261 49.2202 39.3948C49.3578 39.3321 49.499 39.2624 49.6437 39.1927C50.2014 38.8862 50.7555 38.4856 51.239 38.0153C51.7154 37.5381 52.1213 36.9912 52.4319 36.4408C52.506 36.3014 52.5731 36.1586 52.6401 36.0228C52.6719 35.9531 52.7072 35.8869 52.7354 35.8172C52.7601 35.7476 52.7884 35.6779 52.8131 35.6117C52.8625 35.4759 52.9119 35.3435 52.9578 35.2146C52.9966 35.0822 53.0284 34.9568 53.0601 34.8349C53.0884 34.713 53.1272 34.5945 53.1413 34.4831C53.1589 34.3681 53.1766 34.2636 53.1942 34.1591C53.2084 34.0581 53.2225 33.964 53.2366 33.8769C53.2436 33.7898 53.2472 33.7062 53.2507 33.6331C53.2684 33.3405 53.2719 33.1733 53.2719 33.1733C53.2719 33.1733 53.2684 33.0061 53.2507 32.7134C53.2472 32.6403 53.2401 32.5602 53.2366 32.4731C53.2225 32.386 53.2119 32.2885 53.1942 32.1874C53.1801 32.0864 53.1625 31.9784 53.1413 31.8635C53.1237 31.7485 53.0884 31.6336 53.0601 31.5116C53.0284 31.3897 52.9966 31.2608 52.9578 31.1319C52.9119 31.003 52.866 30.8707 52.8131 30.7348C52.7884 30.6686 52.7601 30.599 52.7354 30.5293C52.7072 30.4631 52.6719 30.3934 52.6401 30.3238C52.5731 30.1879 52.506 30.0486 52.4319 29.9057C52.1743 29.4529 51.8531 29.0035 51.4825 28.5925C51.2637 28.6064 51.1402 28.6099 51.1402 28.6099Z" fill="#5A5B5D"/>
<path d="M58.079 21.5488V21.5418C58.079 21.5139 58.0754 21.4373 58.0719 21.3154C58.0684 21.2353 58.0613 21.1412 58.0543 21.0262C58.0507 20.9705 58.0472 20.9078 58.0437 20.8451C58.0331 20.7789 58.026 20.7092 58.0154 20.6396C57.9484 20.0578 57.7402 19.2218 57.2637 18.33C57.2037 18.2185 57.1331 18.1106 57.066 17.9956C56.9955 17.8841 56.9284 17.7657 56.8472 17.6577C56.6814 17.4417 56.519 17.2083 56.3178 16.9993C55.9367 16.5639 55.4567 16.1703 54.9308 15.8184C54.3979 15.4701 53.7908 15.1984 53.1485 14.9998C52.5026 14.8082 51.8214 14.7176 51.1438 14.7072C50.4662 14.7176 49.785 14.8082 49.1427 14.9998C48.5039 15.1984 47.8933 15.4701 47.3603 15.8184C46.8309 16.1703 46.3545 16.5604 45.9733 16.9993C45.7721 17.2083 45.6098 17.4382 45.4439 17.6577C45.3627 17.7657 45.2957 17.8841 45.2251 17.9956C45.158 18.1071 45.0874 18.2151 45.0274 18.33C44.5969 19.1382 44.3851 19.8941 44.3004 20.4619V21.7647V23.5518H47.3568H48.8886V21.5592C48.8886 21.5592 48.8921 21.5313 48.8956 21.4791C48.8956 21.4547 48.8991 21.4199 48.8991 21.385C48.8991 21.3676 48.8991 21.3467 48.8991 21.3258C48.9027 21.3049 48.9062 21.284 48.9133 21.2596C48.9274 21.068 49.0015 20.8033 49.1533 20.5142C49.1709 20.4793 49.1991 20.4445 49.2203 20.4062C49.245 20.3713 49.2591 20.3295 49.2909 20.2947C49.3509 20.2285 49.3932 20.1449 49.4638 20.0822C49.5838 19.9359 49.7462 19.814 49.9156 19.6955C49.9615 19.6712 50.0074 19.6433 50.0497 19.6154C50.0956 19.5876 50.145 19.5736 50.1909 19.5458L50.2615 19.5109L50.3391 19.4865C50.3921 19.4726 50.4379 19.4447 50.4909 19.4308C50.6991 19.3716 50.9179 19.3472 51.1438 19.3367C51.3697 19.3472 51.5885 19.3716 51.7967 19.4308C51.8497 19.4447 51.8991 19.4691 51.9485 19.4865L52.0226 19.5109L52.0932 19.5458C52.1391 19.5701 52.192 19.5876 52.2344 19.6154C52.2767 19.6433 52.3226 19.6712 52.3685 19.6955C52.5379 19.814 52.7002 19.9359 52.8202 20.0822C52.8908 20.1449 52.9367 20.2285 52.9967 20.2947C53.0249 20.3295 53.0426 20.3713 53.0673 20.4062C53.0885 20.4445 53.1167 20.4759 53.1344 20.5142C53.2861 20.8068 53.3602 21.0715 53.3743 21.2596C53.3779 21.284 53.3814 21.3049 53.3885 21.3258C53.392 21.3467 53.3885 21.3676 53.3885 21.385C53.3885 21.4234 53.392 21.4547 53.392 21.4791C53.3955 21.5209 53.3991 21.5418 53.3991 21.5523C53.3991 21.5662 53.392 21.615 53.3885 21.6986C53.3885 21.7229 53.3885 21.7508 53.3885 21.7787C53.3814 21.8065 53.3779 21.8379 53.3708 21.8692C53.3638 21.9006 53.3602 21.9354 53.3567 21.9738C53.3532 22.0121 53.3355 22.0469 53.3285 22.0852C53.3179 22.1235 53.3073 22.1653 53.3002 22.2071C53.2826 22.2489 53.2649 22.2908 53.2508 22.3326C53.2438 22.3569 53.2367 22.3778 53.2296 22.3987C53.2191 22.4196 53.2049 22.4405 53.1944 22.4649C53.1732 22.5102 53.152 22.5555 53.1308 22.6008C53.0249 22.7784 52.8944 22.9561 52.7426 23.1163C52.5802 23.2661 52.4003 23.395 52.2203 23.4995C52.1744 23.5204 52.1285 23.5413 52.0826 23.5622C52.0614 23.5727 52.0403 23.5866 52.0156 23.5936C51.9908 23.6005 51.9697 23.6075 51.9485 23.6145C51.9026 23.6284 51.8603 23.6458 51.8179 23.6632C51.7756 23.6737 51.7332 23.6807 51.6944 23.6911C51.6556 23.6981 51.6167 23.7155 51.5779 23.719C51.5391 23.7225 51.5038 23.7294 51.472 23.7329C51.4403 23.7399 51.4085 23.7434 51.3803 23.7503C51.352 23.7503 51.3238 23.7503 51.2991 23.7503C51.2003 23.7538 51.1438 23.7608 51.1438 23.7608H47.3533H37.8805C37.8805 23.7608 37.824 23.7538 37.7252 23.7503C37.7005 23.7503 37.6723 23.7503 37.6441 23.7503C37.6158 23.7434 37.5841 23.7399 37.5523 23.7329C37.5205 23.7294 37.4852 23.7225 37.4464 23.719C37.4076 23.7155 37.3723 23.6981 37.3335 23.6911C37.2946 23.6807 37.2523 23.6702 37.2099 23.6632C37.1676 23.6458 37.1252 23.6284 37.0794 23.6145C37.0582 23.6075 37.0335 23.6005 37.0123 23.5936C36.9911 23.5831 36.9699 23.5692 36.9452 23.5622C36.8994 23.5378 36.8535 23.5169 36.8076 23.4995C36.6276 23.395 36.4476 23.2661 36.2853 23.1163C36.13 22.9561 35.9994 22.7784 35.8935 22.6008C35.8723 22.5555 35.8511 22.5067 35.83 22.4649C35.8194 22.444 35.8053 22.4231 35.7947 22.3987C35.7876 22.3778 35.7806 22.3535 35.7735 22.3326C35.7559 22.2908 35.7417 22.2455 35.7241 22.2071C35.7135 22.1653 35.7064 22.1235 35.6959 22.0852C35.6888 22.0434 35.6711 22.0086 35.6676 21.9738C35.6641 21.9354 35.657 21.9006 35.6535 21.8692C35.6464 21.8379 35.6429 21.8065 35.6359 21.7787C35.6359 21.7508 35.6359 21.7229 35.6359 21.6986C35.6323 21.601 35.6253 21.5453 35.6253 21.5453V21.1064C35.6253 21.1064 35.6323 21.0506 35.6359 20.9531C35.6359 20.9287 35.6359 20.9008 35.6359 20.873C35.6429 20.8451 35.6464 20.8138 35.6535 20.7824C35.6606 20.7476 35.6641 20.7127 35.6676 20.6779C35.6711 20.6396 35.6888 20.6047 35.6959 20.5664C35.7064 20.5281 35.717 20.4863 35.7241 20.4445C35.7417 20.4027 35.7594 20.3609 35.7735 20.3191C35.7806 20.2982 35.7876 20.2738 35.7947 20.2529C35.8053 20.232 35.8194 20.2111 35.83 20.1867C35.8511 20.1414 35.8758 20.0962 35.8935 20.0509C35.9994 19.8732 36.13 19.6955 36.2853 19.5353C36.4476 19.382 36.6276 19.2566 36.8076 19.1521C36.8535 19.1312 36.9029 19.1103 36.9452 19.0894C36.9664 19.079 36.9876 19.065 37.0123 19.0546C37.0335 19.0476 37.0582 19.0407 37.0794 19.0337C37.1252 19.0198 37.1676 19.0023 37.2099 18.9849C37.2523 18.9745 37.2946 18.9675 37.3335 18.957C37.3723 18.9501 37.4111 18.9292 37.4464 18.9292C37.4852 18.9257 37.5205 18.9187 37.5523 18.9152C37.5841 18.9083 37.6158 18.9048 37.6441 18.8978C37.6723 18.8978 37.7005 18.8978 37.7252 18.8978C37.824 18.8943 37.8805 18.8874 37.8805 18.8874H39.1723V14.2543H37.8805C37.8805 14.2543 37.7111 14.2578 37.4146 14.2752C37.3405 14.2787 37.2594 14.2857 37.1711 14.2892C37.0829 14.3031 36.9841 14.3136 36.8817 14.331C36.7794 14.3484 36.67 14.3658 36.5535 14.3832C36.437 14.4006 36.3205 14.4355 36.197 14.4668C36.0735 14.4982 35.9429 14.5295 35.8123 14.5678C35.6817 14.6131 35.5476 14.6584 35.41 14.7107C35.3429 14.7351 35.2723 14.7629 35.2017 14.7873C35.1312 14.8152 35.0641 14.85 34.9935 14.8814C34.8523 14.9475 34.7112 15.0137 34.57 15.0869C34.0124 15.3934 33.4582 15.794 32.9747 16.2643C32.4983 16.7415 32.0924 17.2885 31.7818 17.8388C31.7112 17.9782 31.6406 18.1175 31.5771 18.2569C31.5453 18.3265 31.51 18.3927 31.4818 18.4624C31.4536 18.5321 31.4289 18.6017 31.4042 18.6679C31.3548 18.8038 31.3053 18.9361 31.2595 19.065C31.2206 19.1974 31.1889 19.3228 31.1571 19.4447C31.1289 19.5667 31.0936 19.6851 31.0759 19.7966C31.0583 19.9115 31.0406 20.016 31.023 20.1171C31.0089 20.2181 30.9948 20.3156 30.9842 20.4027C30.9771 20.4898 30.9736 20.5734 30.9701 20.6431C30.9524 20.9357 30.9489 21.1029 30.9489 21.1029V21.5418C30.9489 21.5418 30.9524 21.709 30.9701 22.0016C30.9736 22.0748 30.9806 22.1549 30.9842 22.2455C30.9983 22.3326 31.0089 22.4266 31.023 22.5276C31.0406 22.6286 31.0583 22.7366 31.0759 22.8481C31.0936 22.9631 31.1289 23.078 31.1571 23.1999C31.1889 23.3219 31.2242 23.4508 31.2595 23.5796C31.3053 23.7085 31.3512 23.8409 31.4042 23.9768C31.4289 24.0429 31.4571 24.1126 31.4818 24.1823C31.51 24.252 31.5453 24.3181 31.5771 24.3878C31.6442 24.5272 31.7112 24.663 31.7853 24.8058C32.0959 25.3562 32.4983 25.9031 32.9783 26.3804C33.4618 26.8506 34.0159 27.2512 34.5735 27.5578C34.7147 27.6275 34.8594 27.6971 34.997 27.7633C35.0676 27.7947 35.1347 27.8295 35.2053 27.8574C35.2759 27.8852 35.3464 27.9096 35.4135 27.934C35.5511 27.9863 35.6853 28.0315 35.8159 28.0768C35.95 28.1151 36.077 28.1465 36.2005 28.1779C36.3241 28.2057 36.4441 28.244 36.557 28.2615C36.6735 28.2789 36.7829 28.2963 36.8852 28.3102C36.9876 28.3242 37.0829 28.3381 37.1747 28.352C37.2629 28.359 37.3441 28.3625 37.4182 28.3694C37.7146 28.3869 37.884 28.3903 37.884 28.3903H47.3568H51.1473C51.1473 28.3903 51.3167 28.3869 51.6132 28.3694C51.6873 28.366 51.7685 28.359 51.8567 28.352C51.945 28.3416 52.0403 28.3276 52.1461 28.3102C52.2485 28.2928 52.3579 28.2789 52.4744 28.2615C52.5908 28.244 52.7073 28.2092 52.8308 28.1779C52.9544 28.1465 53.0849 28.1117 53.2155 28.0768C53.3461 28.0315 53.4802 27.9863 53.6179 27.934C53.6849 27.9096 53.7555 27.8818 53.8261 27.8574C53.8967 27.8295 53.9638 27.7947 54.0343 27.7633C54.1755 27.6971 54.3132 27.6309 54.4579 27.5578C55.0155 27.2512 55.5696 26.8506 56.0531 26.3804C56.5296 25.9031 56.9355 25.3562 57.246 24.8058C57.3166 24.663 57.3872 24.5272 57.4507 24.3878C57.4825 24.3181 57.5178 24.252 57.546 24.1823C57.5707 24.1126 57.599 24.0429 57.6237 23.9768C57.6731 23.8409 57.7225 23.7085 57.7684 23.5796C57.8037 23.4508 57.839 23.3219 57.8707 23.1999C57.899 23.078 57.9378 22.9596 57.9554 22.8481C57.9731 22.7332 57.9907 22.6286 58.0084 22.5276C58.0225 22.4266 58.0366 22.3326 58.0507 22.2455C58.0578 22.1584 58.0613 22.0748 58.0649 22.0016C58.079 21.7404 58.086 21.5871 58.086 21.5557C58.079 21.5557 58.079 21.5523 58.079 21.5488Z" fill="#5A5B5D"/>
<path d="M43.5628 7.40581C43.4887 8.37771 43.2028 9.30431 42.7828 10.0951C42.3664 10.8893 41.8158 11.5547 41.2335 12.0772C40.6476 12.5997 40.03 12.9899 39.4441 13.2511C39.4264 13.2616 39.4088 13.2685 39.3911 13.2755V21.7613V23.5483H44.0711V21.7613V10.8162C44.0711 10.8162 44.0746 10.7883 44.0781 10.736C44.0781 10.7116 44.0816 10.6768 44.0816 10.642C44.0816 10.6246 44.0816 10.6037 44.0816 10.5828C44.0852 10.5619 44.0887 10.541 44.0958 10.5166C44.1099 10.325 44.184 10.0602 44.3358 9.7711C44.3534 9.73627 44.3816 9.70143 44.4028 9.66311C44.4275 9.62828 44.4416 9.58648 44.4734 9.55164C44.5334 9.48546 44.5758 9.40185 44.6463 9.33915C44.7663 9.19284 44.9287 9.07092 45.0981 8.95248C45.144 8.9281 45.1863 8.90023 45.2322 8.87236C45.2781 8.84449 45.3275 8.82708 45.3734 8.80269L45.444 8.76437L45.5216 8.73999C45.5746 8.72257 45.6204 8.69819 45.6734 8.68425C45.8816 8.62503 46.1004 8.60065 46.3263 8.5902C46.5522 8.60065 46.771 8.62503 46.9792 8.68425C47.0322 8.69819 47.0816 8.72257 47.131 8.73999L47.2051 8.76437L47.2757 8.80269C47.3216 8.82708 47.371 8.84449 47.4169 8.87236C47.4628 8.90023 47.5051 8.9281 47.551 8.95248C47.7204 9.07092 47.8827 9.19284 48.0027 9.33915C48.0733 9.40185 48.1192 9.48546 48.1757 9.55164C48.2074 9.58648 48.2216 9.62828 48.2463 9.66311C48.2674 9.70143 48.2922 9.73278 48.3133 9.7711C48.4616 10.0637 48.5357 10.325 48.5533 10.5166C48.5569 10.541 48.5639 10.5619 48.5674 10.5828C48.571 10.6037 48.5674 10.6246 48.571 10.642C48.571 10.6803 48.5745 10.7116 48.5745 10.736C48.578 10.7883 48.5816 10.8162 48.5816 10.8162V12.0249C48.5816 12.0249 48.5745 12.0807 48.571 12.1782C48.571 12.2026 48.571 12.2304 48.571 12.2583C48.5639 12.2862 48.5604 12.3175 48.5533 12.3489C48.5498 12.3802 48.5427 12.4186 48.5392 12.4534C48.5357 12.4917 48.518 12.5265 48.511 12.5683C48.5004 12.6067 48.4898 12.6485 48.4827 12.6903C48.4651 12.7321 48.451 12.7739 48.4333 12.8157C48.4263 12.8366 48.4192 12.861 48.4121 12.8819C48.4016 12.9028 48.3874 12.9237 48.3804 12.948C48.3592 12.9933 48.338 13.0386 48.3169 13.0839C48.211 13.2616 48.0804 13.4392 47.9251 13.5995C47.7627 13.7527 47.5828 13.8781 47.4028 13.9826C47.3569 14.0035 47.311 14.0244 47.2651 14.0453C47.2439 14.0558 47.2228 14.0697 47.1981 14.0767C47.1733 14.0837 47.1522 14.0906 47.131 14.0976C47.0851 14.1115 47.0428 14.129 47.0039 14.1464C46.9616 14.1568 46.9192 14.1638 46.8804 14.1742C46.8416 14.1812 46.8028 14.2021 46.7675 14.2021C46.7287 14.2056 46.6934 14.2091 46.6616 14.216C46.6263 14.223 46.5981 14.2265 46.5698 14.2335C46.5416 14.2335 46.5134 14.2335 46.4887 14.2369C46.3898 14.2404 46.3334 14.2474 46.3334 14.2474H44.3005V18.8665H44.5228C44.611 18.654 44.7134 18.438 44.8334 18.2151C44.8934 18.1001 44.9675 17.9887 45.0381 17.8702C45.1122 17.7553 45.1793 17.6333 45.264 17.5219C45.4334 17.2989 45.6028 17.0586 45.811 16.8426C46.2063 16.3932 46.6969 15.9857 47.2439 15.6234C47.7945 15.2646 48.4227 14.9859 49.0827 14.7769C49.7498 14.5783 50.4521 14.4843 51.1509 14.4738C51.6838 14.4808 52.2203 14.54 52.7427 14.655C52.7674 14.5853 52.7956 14.5191 52.8203 14.4529C52.8697 14.3171 52.9191 14.1847 52.965 14.0558C53.0038 13.9234 53.0356 13.798 53.0674 13.6761C53.0956 13.5542 53.1309 13.4357 53.1485 13.3243C53.1662 13.2128 53.1838 13.1048 53.2015 13.0038C53.2156 12.9028 53.2297 12.8087 53.2438 12.7181C53.2509 12.631 53.2544 12.5474 53.2615 12.4743C53.2756 12.1817 53.2826 12.0145 53.2826 12.0145V10.8057C53.2826 10.8057 53.2791 10.7221 53.2721 10.5653C53.2685 10.4852 53.2615 10.3912 53.2579 10.2762C53.2544 10.2205 53.2509 10.1578 53.2438 10.0951C53.2332 10.0289 53.2262 9.96269 53.2156 9.88954C53.1485 9.3078 52.9403 8.47176 52.4638 7.5765C52.4038 7.46503 52.3333 7.35704 52.2662 7.24557C52.1956 7.1341 52.1321 7.01566 52.0474 6.90767C51.885 6.6917 51.7227 6.4583 51.518 6.24929C51.1368 5.81386 50.6603 5.42022 50.1309 5.06839C49.598 4.72004 48.991 4.44833 48.3486 4.24977C47.7028 4.05817 47.0251 3.9676 46.344 3.95715C45.6663 3.9676 44.9852 4.05817 44.3428 4.24977C43.9652 4.36821 43.6052 4.51103 43.2593 4.67824C43.5346 5.58394 43.6369 6.51752 43.5628 7.40581Z" fill="#5A5B5D"/>
<path d="M43.3404 36.608C43.2662 35.6675 42.991 34.7688 42.5851 34.0024C42.1792 33.2325 41.6498 32.5881 41.0851 32.083C40.5169 31.5779 39.9204 31.1982 39.3522 30.9474C39.2816 30.916 39.211 30.8812 39.144 30.8498C39.0734 30.822 39.0028 30.7976 38.9357 30.7697C38.7981 30.7209 38.6675 30.6722 38.5404 30.6269C38.2828 30.5502 38.0393 30.4945 37.824 30.4423C37.6016 30.4039 37.4075 30.3761 37.2346 30.3517C37.0617 30.3273 36.917 30.3273 36.797 30.3169C36.7334 30.3134 36.6805 30.3134 36.6346 30.3099C36.5675 30.3064 36.5111 30.3064 36.4758 30.3029H34.397H34.1746H29.4912H29.2689H28.9724H28.7642V34.922H28.9689H29.2653H29.4877H34.1711H34.3935H36.4264H36.4723V34.9255C36.4934 34.9255 36.5146 34.929 36.5464 34.929C36.5852 34.9325 36.6346 34.9255 36.6911 34.9394C36.7475 34.9499 36.8111 34.9603 36.8817 34.9673C36.9487 34.9917 37.0299 35.0056 37.1111 35.03C37.1499 35.0474 37.1922 35.0614 37.2381 35.0788C37.2593 35.0858 37.284 35.0927 37.3052 35.0997C37.3264 35.1101 37.3475 35.1206 37.3722 35.1345C37.5593 35.2112 37.7499 35.34 37.9369 35.5038C38.311 35.8312 38.6252 36.3537 38.671 36.9703C38.6957 37.2804 38.6534 37.6043 38.544 37.9039C38.4346 38.2035 38.2546 38.4891 38.0216 38.726C37.7816 38.9559 37.4922 39.1336 37.1887 39.2416C36.8852 39.3495 36.557 39.3913 36.2428 39.367C35.6182 39.3217 35.0888 39.0116 34.7535 38.6424C34.5876 38.4578 34.4535 38.2697 34.3794 38.085C34.3652 38.0641 34.3546 38.0398 34.3441 38.0223C34.337 37.998 34.3299 37.9771 34.3194 37.9527C34.3052 37.9109 34.2876 37.8691 34.2735 37.8273C34.2488 37.7437 34.2346 37.667 34.2099 37.6008C34.2029 37.5312 34.1923 37.465 34.1817 37.4127C34.1711 37.3605 34.1782 37.3082 34.1746 37.2699C34.1711 37.1933 34.1676 37.1515 34.1676 37.1515V35.145H29.4912V37.1515C29.4912 37.1515 29.4983 37.2769 29.5053 37.5137C29.5159 37.6322 29.5124 37.775 29.5406 37.9457C29.5653 38.1164 29.5936 38.308 29.6324 38.5274C29.6853 38.7434 29.7418 38.9803 29.823 39.2346C29.8653 39.36 29.9147 39.4889 29.9677 39.6247C29.9924 39.6909 30.0171 39.7606 30.0488 39.8303C30.0806 39.8965 30.1124 39.9661 30.1477 40.0358C30.4018 40.5966 30.7865 41.1888 31.2982 41.7462C31.81 42.3035 32.4629 42.8296 33.2429 43.2267C34.0229 43.6273 34.9299 43.899 35.8829 43.9721C36.8322 44.0453 37.8346 43.9269 38.784 43.589C39.7334 43.2511 40.6157 42.7007 41.3392 41.9935C42.0592 41.2794 42.6168 40.4085 42.9557 39.4715C43.2945 38.5344 43.418 37.5451 43.3404 36.608Z" fill="#5A5B5D"/>
<path d="M29.4912 30.0833H34.1746V27.5822C33.6982 27.293 33.2323 26.9447 32.8158 26.5371C32.3217 26.0425 31.9053 25.4816 31.5841 24.9103C31.51 24.764 31.4394 24.6212 31.3688 24.4784C31.337 24.4087 31.3017 24.339 31.27 24.2659C31.2417 24.1962 31.2135 24.1231 31.1888 24.0534C31.1359 23.914 31.0864 23.7747 31.0406 23.6423C31.0017 23.5065 30.9664 23.3741 30.9347 23.2487C30.9065 23.1198 30.8676 23.0014 30.85 22.8829C30.8288 22.7645 30.8112 22.653 30.797 22.5485C30.7829 22.444 30.7688 22.3465 30.7547 22.2559C30.7476 22.1653 30.7441 22.0817 30.737 22.0051C30.7194 21.702 30.7159 21.5313 30.7159 21.5313V21.0924C30.7159 21.0924 30.7194 20.9217 30.737 20.6187C30.7406 20.542 30.7476 20.4584 30.7547 20.3678C30.7688 20.2773 30.7829 20.1797 30.797 20.0752C30.8147 19.9707 30.8323 19.8593 30.85 19.7408C30.8676 19.6224 30.9029 19.5039 30.9347 19.3751C30.97 19.2496 31.0017 19.1173 31.0406 18.9814C31.0864 18.849 31.1359 18.7132 31.1888 18.5704C31.217 18.5007 31.2417 18.431 31.27 18.3579C31.2982 18.2882 31.3335 18.2185 31.3688 18.1454C31.4359 18.0026 31.5064 17.8597 31.5841 17.7134C31.9053 17.1456 32.3217 16.5813 32.8158 16.0866C33.2323 15.6825 33.6982 15.3307 34.1746 15.0416V6.84493C34.1746 6.84493 34.1782 6.80313 34.1817 6.72649C34.1852 6.68817 34.1782 6.6394 34.1887 6.58367C34.1993 6.52793 34.2099 6.46523 34.217 6.39556C34.2417 6.32937 34.2558 6.24925 34.277 6.16913C34.2946 6.13081 34.3087 6.08901 34.3264 6.04373C34.3334 6.02282 34.3405 5.99844 34.3511 5.97754C34.3617 5.95664 34.3723 5.93574 34.3864 5.91135C34.464 5.72673 34.5946 5.53862 34.7605 5.35399C35.0923 4.98474 35.6217 4.67471 36.2499 4.62943C36.564 4.60504 36.8922 4.64684 37.1957 4.75483C37.4993 4.86282 37.7887 5.04048 38.0287 5.27387C38.2616 5.51075 38.4416 5.79291 38.5545 6.09598C38.664 6.39556 38.7063 6.71952 38.6816 7.02955C38.6357 7.64613 38.3216 8.16866 37.9475 8.4961C37.7604 8.65983 37.5699 8.78872 37.3828 8.86535C37.3616 8.87581 37.3369 8.88626 37.3157 8.90019C37.2946 8.91064 37.2699 8.91412 37.2487 8.92457C37.2028 8.93851 37.1605 8.95593 37.1216 8.97334C37.0369 8.99773 36.9593 9.01166 36.8922 9.03256C36.8181 9.03953 36.7546 9.04998 36.7016 9.06043C36.6452 9.07436 36.5958 9.06391 36.5569 9.07088C36.4793 9.07436 36.4369 9.08133 36.4369 9.08133H34.404V13.7004H36.4369C36.4369 13.7004 36.564 13.697 36.8005 13.6865C36.9205 13.6795 37.0652 13.6795 37.2381 13.6552C37.411 13.6308 37.6087 13.6029 37.8275 13.5646C38.0463 13.5123 38.2863 13.4566 38.544 13.3765C38.671 13.3312 38.8016 13.2859 38.9392 13.2337C39.0063 13.2093 39.0769 13.1849 39.1475 13.1535C39.2145 13.1222 39.2851 13.0908 39.3557 13.056C39.9239 12.8052 40.5239 12.4255 41.0886 11.9204C41.6533 11.4153 42.1862 10.7708 42.5886 10.001C42.9945 9.2346 43.2698 8.33586 43.3439 7.39532C43.418 6.45826 43.298 5.46895 42.9556 4.53189C42.6133 3.59483 42.0557 2.72396 41.3392 2.00984C40.6157 1.29921 39.7333 0.748816 38.784 0.4144C37.8346 0.0765014 36.8322 -0.0454208 35.8828 0.031216C34.9299 0.104369 34.0193 0.376082 33.2429 0.776684C32.4629 1.17729 31.81 1.69981 31.2982 2.25717C30.7865 2.81801 30.4018 3.40672 30.1476 3.96756C30.1159 4.03723 30.0806 4.1069 30.0488 4.17309C30.0206 4.24276 29.9959 4.31243 29.9676 4.37862C29.9147 4.51447 29.8688 4.64336 29.8265 4.76877C29.7453 5.02306 29.6888 5.26342 29.6359 5.47592C29.5971 5.69189 29.5688 5.88697 29.5441 6.05766C29.5194 6.22835 29.5194 6.37117 29.5088 6.48961C29.4982 6.72301 29.4947 6.8519 29.4947 6.8519V30.0833H29.4912Z" fill="#5A5B5D"/>
</g>
<defs>
<clipPath id="clip0">
<rect width="192" height="44" fill="white"/>
</clipPath>
</defs>
</svg>
